custom-analysis
version=1
nRows=6
nColumns=98
inDegrees=no

This file contains tibia displacement and acting force.

Units are S.I. units (seconds, meters, Newtons, ...)
Angles are in degrees.

endheader
time	APT	SIT	knee_angle	aACL_R_force	pACL_R_force	aPCL_R_force	pPCL_R_force	aMCL_R_force	mMCL_R_force	pMCL_R_force	aLCL_R_force	mLCL_R_force	pLCL_R_force	aPCL_L_force	pPCL_L_force	aMCL_L_force	aLCL_L_force	aACL_R_length	pACL_R_length	aPCL_R_length	pPCL_R_length	aMCL_R_length	mMCL_R_length	pMCL_R_length	aLCL_R_length	mLCL_R_length	pLCL_R_length	aPCL_L_length	pPCL_L_length	aMCL_L_length	aLCL_L_length	aACL_R_strain	pACL_R_strain	aPCL_R_strain	pPCL_R_strain	aMCL_R_strain	mMCL_R_strain	pMCL_R_strain	aLCL_R_strain	mLCL_R_strain	pLCL_R_strain	aPCL_L_strain	pPCL_L_strain	aMCL_L_strain	aLCL_L_strain	femur_lat_meniscii_r.femur_lat_r.force.X	femur_lat_meniscii_r.femur_lat_r.force.Y	femur_lat_meniscii_r.femur_lat_r.force.Z	femur_lat_meniscii_r.femur_lat_r.torque.X	femur_lat_meniscii_r.femur_lat_r.torque.Y	femur_lat_meniscii_r.femur_lat_r.torque.Z	femur_lat_meniscii_r.meniscus_lat_r.force.X	femur_lat_meniscii_r.meniscus_lat_r.force.Y	femur_lat_meniscii_r.meniscus_lat_r.force.Z	femur_lat_meniscii_r.meniscus_lat_r.torque.X	femur_lat_meniscii_r.meniscus_lat_r.torque.Y	femur_lat_meniscii_r.meniscus_lat_r.torque.Z	femur_med_meniscii_r.femur_med_r.force.X	femur_med_meniscii_r.femur_med_r.force.Y	femur_med_meniscii_r.femur_med_r.force.Z	femur_med_meniscii_r.femur_med_r.torque.X	femur_med_meniscii_r.femur_med_r.torque.Y	femur_med_meniscii_r.femur_med_r.torque.Z	femur_med_meniscii_r.meniscus_med_r.force.X	femur_med_meniscii_r.meniscus_med_r.force.Y	femur_med_meniscii_r.meniscus_med_r.force.Z	femur_med_meniscii_r.meniscus_med_r.torque.X	femur_med_meniscii_r.meniscus_med_r.torque.Y	femur_med_meniscii_r.meniscus_med_r.torque.Z	femur_med_tibia_r.tibia_upper_r.force.X	femur_med_tibia_r.tibia_upper_r.force.Y	femur_med_tibia_r.tibia_upper_r.force.Z	femur_med_tibia_r.tibia_upper_r.torque.X	femur_med_tibia_r.tibia_upper_r.torque.Y	femur_med_tibia_r.tibia_upper_r.torque.Z	femur_med_tibia_r.femur_med_r.force.X	femur_med_tibia_r.femur_med_r.force.Y	femur_med_tibia_r.femur_med_r.force.Z	femur_med_tibia_r.femur_med_r.torque.X	femur_med_tibia_r.femur_med_r.torque.Y	femur_med_tibia_r.femur_med_r.torque.Z	femur_lat_tibia_r.tibia_upper_r.force.X	femur_lat_tibia_r.tibia_upper_r.force.Y	femur_lat_tibia_r.tibia_upper_r.force.Z	femur_lat_tibia_r.tibia_upper_r.torque.X	femur_lat_tibia_r.tibia_upper_r.torque.Y	femur_lat_tibia_r.tibia_upper_r.torque.Z	femur_lat_tibia_r.femur_lat_r.force.X	femur_lat_tibia_r.femur_lat_r.force.Y	femur_lat_tibia_r.femur_lat_r.force.Z	femur_lat_tibia_r.femur_lat_r.torque.X	femur_lat_tibia_r.femur_lat_r.torque.Y	femur_lat_tibia_r.femur_lat_r.torque.Z	femur_lat_meniscii_force_r	femur_med_meniscii_force_r	femur_lat_tibia_force_r	femur_med_tibia_force_r
      0.72268924	      0.00641002	     -0.00047449	     60.00037120	     80.55480794	     18.97711393	    295.61622285	     57.38497724	      5.42520120	      1.72994861	      0.00000000	      0.00000000	      0.00000000	      0.00000000	      0.00000000	      0.00000000	      0.00000001	      0.00000000	      0.03422061	      0.02631884	      0.03347381	      0.03057681	      0.06164093	      0.06056023	      0.05719294	      0.05149038	      0.04659316	      0.04149023	      0.01525851	      0.01651186	      0.06550154	      0.04489616	      0.10369485	      0.05028738	      0.07649106	      0.02305310	      0.02688667	      0.01282293	     -0.02613852	     -0.08015440	     -0.17268608	     -0.20733502	      0.00000079	     -0.32847694	      0.00000060	     -0.00000086	    168.51171370	     92.51683150	     28.79602926	    -14.00529407	      4.20203578	     68.85820687	   -168.51171370	    -92.51683150	    -28.79602926	      3.15630650	     -5.68340472	     -0.61153891	    130.66111989	     16.99047156	    -10.60793141	      4.64489874	     -2.62289475	     53.11490874	   -130.66111989	    -16.99047156	     10.60793141	     -0.40718227	      2.25855053	     -1.50122657	   -130.36958632	    -58.52023448	      9.93663970	     -0.91796120	      1.92406388	     -0.70767838	    130.36958632	     58.52023448	     -9.93663970	      5.08867488	     -2.30301666	     53.19602727	      0.00000000	      0.00000000	      0.00000000	      0.00000000	      0.00000000	      0.00000000	      0.00000000	      0.00000000	      0.00000000	      0.00000000	      0.00000000	      0.00000000	    194.38305756	    132.18749027	      0.00000000	    143.24658352
      0.72584494	      0.00640971	     -0.00047426	     60.00037120	     80.52168232	     18.93992264	    295.36864319	     57.00694230	      5.15686751	      1.44443846	      0.00000000	      0.00000000	      0.00000000	      0.00000000	      0.00000000	      0.00000000	      0.00000001	      0.00000000	      0.03422059	      0.02631878	      0.03347309	      0.03057648	      0.06164300	      0.06056240	      0.05719507	      0.05148618	      0.04658890	      0.04148599	      0.01525851	      0.01651186	      0.06550154	      0.04489616	      0.10369414	      0.05028526	      0.07646773	      0.02304210	      0.02692123	      0.01285926	     -0.02610220	     -0.08022945	     -0.17276170	     -0.20741597	      0.00000079	     -0.32847694	      0.00000060	     -0.00000086	    169.00979481	     92.69859572	     28.73191777	    -13.98280539	      4.21337298	     69.06342831	   -169.00979481	    -92.69859572	    -28.73191777	      3.16031230	     -5.69653052	     -0.61711111	    130.68068712	     16.97551878	    -10.71414312	      4.68783666	     -2.62338016	     53.12260957	   -130.68068712	    -16.97551878	     10.71414312	     -0.40846311	      2.26073891	     -1.50154689	   -128.83036315	    -57.81154955	      9.84489703	     -0.90708050	      1.90141878	     -0.69982421	    128.83036315	     57.81154955	     -9.84489703	      5.03882280	     -2.27601206	     52.56812129	      0.00000000	      0.00000000	      0.00000000	      0.00000000	      0.00000000	      0.00000000	      0.00000000	      0.00000000	      0.00000000	      0.00000000	      0.00000000	      0.00000000	    194.89192771	    132.21347544	      0.00000000	    141.54984892
      0.73169549	      0.00640959	     -0.00047237	     60.00037120	     80.33289937	     18.71005695	    295.00536849	     57.04159726	      5.22643538	      1.52072292	      0.00000000	      0.00000000	      0.00000000	      0.00000000	      0.00000000	      0.00000000	      0.00000001	      0.00000000	      0.03422044	      0.02631866	      0.03347015	      0.03057413	      0.06164456	      0.06056405	      0.05719660	      0.05147807	      0.04658068	      0.04147775	      0.01525851	      0.01651186	      0.06550154	      0.04489616	      0.10368950	      0.05028039	      0.07637341	      0.02296343	      0.02694722	      0.01288688	     -0.02607622	     -0.08037441	     -0.17290772	     -0.20757342	      0.00000079	     -0.32847694	      0.00000060	     -0.00000086	    169.31497848	     93.11401902	     29.83703855	    -14.45061420	      4.23316625	     69.18713410	   -169.31497848	    -93.11401902	    -29.83703855	      3.19791633	     -5.74590965	     -0.61102818	    130.51981013	     17.11467418	     -9.89023899	      4.35463008	     -2.60925138	     53.05504612	   -130.51981013	    -17.11467418	      9.89023899	     -0.39732277	      2.22641355	     -1.49361718	   -128.58141090	    -57.74771317	      9.64011864	     -0.90139331	      1.88996067	     -0.69664355	    128.58141090	     57.74771317	     -9.64011864	      4.95318260	     -2.26957141	     52.46604084	      0.00000000	      0.00000000	      0.00000000	      0.00000000	      0.00000000	      0.00000000	      0.00000000	      0.00000000	      0.00000000	      0.00000000	      0.00000000	      0.00000000	    195.51990012	    132.00814268	      0.00000000	    141.28308282
      0.73479246	      0.00640934	     -0.00047217	     60.00037120	     80.54385011	     18.98786884	    294.85681564	     56.73661797	      5.04825100	      1.31854605	      0.00000000	      0.00000000	      0.00000000	      0.00000000	      0.00000000	      0.00000000	      0.00000001	      0.00000000	      0.03421982	      0.02631790	      0.03346989	      0.03057414	      0.06164591	      0.06056548	      0.05719805	      0.05147556	      0.04657816	      0.04147527	      0.01525851	      0.01651186	      0.06550154	      0.04489616	      0.10366927	      0.05025009	      0.07636505	      0.02296374	      0.02696967	      0.01291078	     -0.02605142	     -0.08041910	     -0.17295249	     -0.20762075	      0.00000079	     -0.32847694	      0.00000060	     -0.00000086	    169.72883807	     93.09204929	     28.82471307	    -14.03030741	      4.23204058	     69.35901778	   -169.72883807	    -93.09204929	    -28.82471307	      3.17445778	     -5.72300183	     -0.62121703	    130.47214981	     16.91316020	    -10.85787665	      4.74521597	     -2.61938484	     53.03781119	   -130.47214981	    -16.91316020	     10.85787665	     -0.40958652	      2.25953991	     -1.49985422	   -127.60483864	    -57.25792081	      9.79630202	     -0.89855230	      1.88313003	     -0.69306472	    127.60483864	     57.25792081	     -9.79630202	      5.00935558	     -2.25466563	     52.06806648	      0.00000000	      0.00000000	      0.00000000	      0.00000000	      0.00000000	      0.00000000	      0.00000000	      0.00000000	      0.00000000	      0.00000000	      0.00000000	      0.00000000	    195.71630539	    132.01109934	      0.00000000	    140.20496379
      0.73788943	      0.00640926	     -0.00047176	     60.00037120	     80.49396918	     18.92352602	    294.73898926	     56.68454858	      4.99008346	      1.25798384	      0.00000000	      0.00000000	      0.00000000	      0.00000000	      0.00000000	      0.00000000	      0.00000001	      0.00000000	      0.03421995	      0.02631806	      0.03346912	      0.03057355	      0.06164661	      0.06056621	      0.05719874	      0.05147311	      0.04657566	      0.04147277	      0.01525851	      0.01651186	      0.06550154	      0.04489616	      0.10367340	      0.05025637	      0.07634027	      0.02294420	      0.02698129	      0.01292299	     -0.02603978	     -0.08046298	     -0.17299677	     -0.20766852	      0.00000079	     -0.32847694	      0.00000060	     -0.00000086	    169.84691002	     93.19793005	     29.10375878	    -14.14869913	      4.23790142	     69.40733917	   -169.84691002	    -93.19793005	    -29.10375878	      3.18430831	     -5.73668270	     -0.62064981	    130.46308307	     16.99345137	    -10.59927702	      4.64161101	     -2.61580756	     53.03301927	   -130.46308307	    -16.99345137	     10.59927702	     -0.40688962	      2.24939163	     -1.49666109	   -127.26273242	    -57.11266332	      9.72131401	     -0.89501659	      1.87594469	     -0.69085446	    127.26273242	     57.11266332	     -9.72131401	      4.97594603	     -2.24808914	     51.92837954	      0.00000000	      0.00000000	      0.00000000	      0.00000000	      0.00000000	      0.00000000	      0.00000000	      0.00000000	      0.00000000	      0.00000000	      0.00000000	      0.00000000	    195.91032587	    131.99143194	      0.00000000	    139.82905034
      0.74275498	      0.00640927	     -0.00047125	     60.00037120	     80.62044131	     19.07491757	    294.58661601	     56.54046039	      4.91453032	      1.16727172	      0.00000000	      0.00000000	      0.00000000	      0.00000000	      0.00000000	      0.00000000	      0.00000001	      0.00000000	      0.03421985	      0.02631794	      0.03346829	      0.03057292	      0.06164733	      0.06056697	      0.05719946	      0.05147049	      0.04657301	      0.04147012	      0.01525851	      0.01651186	      0.06550154	      0.04489616	      0.10367046	      0.05025143	      0.07631345	      0.02292319	      0.02699330	      0.01293562	     -0.02602743	     -0.08050974	     -0.17304382	     -0.20771916	      0.00000079	     -0.32847694	      0.00000060	     -0.00000086	    170.05265578	     93.17074252	     28.74410813	    -13.99887798	      4.23907208	     69.49326748	   -170.05265578	    -93.17074252	    -28.74410813	      3.17560243	     -5.73082039	     -0.62649171	    130.44472911	     16.90334748	    -10.94413301	      4.78041629	     -2.61925477	     53.02656244	   -130.44472911	    -16.90334748	     10.94413301	     -0.41090875	      2.26073233	     -1.49950252	   -126.99126848	    -56.96004058	      9.78966046	     -0.89439415	      1.87457171	     -0.69036914	    126.99126848	     56.96004058	     -9.78966046	      5.00156900	     -2.24419706	     51.81793090	      0.00000000	      0.00000000	      0.00000000	      0.00000000	      0.00000000	      0.00000000	      0.00000000	      0.00000000	      0.00000000	      0.00000000	      0.00000000	      0.00000000	    196.02274549	    131.98986535	      0.00000000	    139.52442778
